<svg width="188" height="40" viewBox="0 0 188 40" fill="none" xmlns="http://www.w3.org/2000/svg">
<rect x="0.627686" width="187.204" height="40" rx="20" fill="#262626"/>
<rect x="16.6277" y="8" width="54" height="24" rx="12" fill="url(#paint0_linear_2588_10160)"/>
<path d="M32.4898 21.958C32.4898 22.5227 32.4198 23.0313 32.2798 23.484C32.1444 23.932 31.9391 24.3147 31.6638 24.632C31.3931 24.9447 31.0548 25.1873 30.6488 25.36C30.2474 25.528 29.7808 25.612 29.2488 25.612C29.0061 25.612 28.7658 25.5957 28.5278 25.563C28.2898 25.535 28.0424 25.4883 27.7858 25.423L27.8698 24.443C27.8838 24.3497 27.9188 24.275 27.9748 24.219C28.0354 24.163 28.1218 24.135 28.2338 24.135C28.3178 24.135 28.4251 24.1537 28.5558 24.191C28.6911 24.2237 28.8661 24.24 29.0808 24.24C29.3654 24.24 29.6174 24.198 29.8368 24.114C30.0608 24.03 30.2474 23.8993 30.3968 23.722C30.5508 23.54 30.6651 23.309 30.7398 23.029C30.8191 22.7443 30.8588 22.4013 30.8588 22V15.42H32.4898V21.958ZM44.2537 20.46C44.2537 21.2067 44.1324 21.895 43.8897 22.525C43.647 23.155 43.304 23.6987 42.8607 24.156C42.422 24.6087 41.8924 24.9633 41.2717 25.22C40.6557 25.4767 39.9697 25.605 39.2137 25.605C38.4624 25.605 37.7764 25.4767 37.1557 25.22C36.5397 24.9633 36.01 24.6087 35.5667 24.156C35.1234 23.6987 34.7804 23.155 34.5377 22.525C34.295 21.895 34.1737 21.2067 34.1737 20.46C34.1737 19.7133 34.295 19.025 34.5377 18.395C34.7804 17.765 35.1234 17.2213 35.5667 16.764C36.01 16.3067 36.5397 15.9497 37.1557 15.693C37.7764 15.4363 38.4624 15.308 39.2137 15.308C39.9697 15.308 40.6557 15.4363 41.2717 15.693C41.8924 15.9497 42.422 16.3067 42.8607 16.764C43.304 17.2213 43.647 17.765 43.8897 18.395C44.1324 19.025 44.2537 19.7133 44.2537 20.46ZM42.5807 20.46C42.5807 19.8813 42.5014 19.361 42.3427 18.899C42.1887 18.437 41.9647 18.045 41.6707 17.723C41.3814 17.401 41.029 17.1537 40.6137 16.981C40.1984 16.8083 39.7317 16.722 39.2137 16.722C38.7004 16.722 38.236 16.8083 37.8207 16.981C37.4054 17.1537 37.0507 17.401 36.7567 17.723C36.4627 18.045 36.2364 18.437 36.0777 18.899C35.919 19.361 35.8397 19.8813 35.8397 20.46C35.8397 21.0433 35.919 21.566 36.0777 22.028C36.2364 22.49 36.4627 22.882 36.7567 23.204C37.0507 23.5213 37.4054 23.7663 37.8207 23.939C38.236 24.107 38.7004 24.191 39.2137 24.191C39.7317 24.191 40.1984 24.107 40.6137 23.939C41.029 23.7663 41.3814 23.5213 41.6707 23.204C41.9647 22.882 42.1887 22.49 42.3427 22.028C42.5014 21.566 42.5807 21.0433 42.5807 20.46ZM47.6933 25.5H46.0483V15.42H47.6933V25.5ZM58.4255 15.42V25.5H57.5925C57.4665 25.5 57.3592 25.479 57.2705 25.437C57.1819 25.3903 57.0979 25.3157 57.0185 25.213L51.4815 18.101C51.4955 18.2363 51.5049 18.3717 51.5095 18.507C51.5189 18.6377 51.5235 18.759 51.5235 18.871V25.5H50.0815V15.42H50.9355C51.0055 15.42 51.0639 15.4247 51.1105 15.434C51.1619 15.4387 51.2085 15.4503 51.2505 15.469C51.2925 15.4877 51.3322 15.5157 51.3695 15.553C51.4069 15.5903 51.4465 15.637 51.4885 15.693L57.0325 22.812C57.0185 22.6673 57.0069 22.525 56.9975 22.385C56.9929 22.245 56.9905 22.1143 56.9905 21.993V15.42H58.4255Z" fill="#262626"/>
<g filter="url(#filter0_d_2588_10160)">
<path d="M133.654 14.7986C133.011 14.2024 132.177 13.9066 131.156 13.9066H127.542C127.371 13.9066 127.226 13.9644 127.108 14.0823C126.99 14.2002 126.93 14.3426 126.93 14.5138V25.5575C126.93 25.7265 126.99 25.8711 127.108 25.989C127.226 26.1069 127.371 26.1647 127.542 26.1647C127.713 26.1647 127.86 26.1069 127.98 25.989C128.1 25.8711 128.163 25.7287 128.163 25.5575V20.9398H131.156C132.184 20.9398 133.018 20.6373 133.658 20.0301C134.299 19.4229 134.619 18.5509 134.619 17.4143C134.619 16.2777 134.296 15.3924 133.654 14.7986ZM132.733 19.2004C132.308 19.6164 131.723 19.8255 130.978 19.8255H128.16V15.0232H130.978C131.723 15.0232 132.306 15.2278 132.733 15.6393C133.158 16.0486 133.371 16.6425 133.371 17.4166C133.371 18.1906 133.158 18.7845 132.733 19.2004Z" fill="url(#paint1_linear_2588_10160)"/>
<path d="M144.561 25.1806L141.25 20.7831C142.213 20.7431 142.993 20.3939 143.591 19.7422C144.192 19.0882 144.49 18.2897 144.49 17.3466C144.49 16.4035 144.163 15.556 143.507 14.8976C142.851 14.2393 142.026 13.9078 141.027 13.9078H137.413C137.242 13.9078 137.097 13.9657 136.979 14.0836C136.862 14.2014 136.802 14.3438 136.802 14.5151V25.5587C136.802 25.7277 136.862 25.8723 136.979 25.9902C137.097 26.1081 137.242 26.1659 137.413 26.1659C137.584 26.1659 137.731 26.1081 137.851 25.9902C137.971 25.8723 138.034 25.73 138.034 25.5587V20.7831H139.866L143.551 25.8834C143.669 26.0703 143.843 26.1659 144.074 26.1659C144.245 26.1659 144.392 26.1081 144.512 25.9902C144.632 25.8723 144.695 25.73 144.695 25.5587C144.695 25.4119 144.65 25.2851 144.561 25.1806ZM138.034 19.6665V15.0244H141.009C141.659 15.0244 142.193 15.2446 142.613 15.6828C143.031 16.1232 143.242 16.6771 143.242 17.3444C143.242 18.0117 143.035 18.5455 142.622 18.9926C142.208 19.4419 141.688 19.6643 141.063 19.6643H138.034V19.6665Z" fill="url(#paint2_linear_2588_10160)"/>
<path d="M146.7 25.5576V14.3716C146.7 14.207 146.76 14.0647 146.878 13.9401C146.996 13.8178 147.14 13.7555 147.312 13.7555C147.483 13.7555 147.63 13.8178 147.75 13.9401C147.87 14.0624 147.932 14.207 147.932 14.3716V25.5576C147.932 25.7222 147.872 25.8646 147.75 25.9847C147.627 26.1048 147.483 26.1648 147.312 26.1648C147.14 26.1648 146.996 26.1048 146.878 25.9847C146.76 25.8646 146.7 25.7222 146.7 25.5576Z" fill="url(#paint3_linear_2588_10160)"/>
<path d="M150.644 25.5746V14.3553C150.644 14.1907 150.701 14.0506 150.822 13.9327C150.939 13.8148 151.082 13.757 151.246 13.757C151.489 13.757 151.669 13.8704 151.787 14.0995L156.179 22.2604L160.592 14.0995C160.721 13.8704 160.901 13.757 161.132 13.757C161.297 13.757 161.439 13.8148 161.557 13.9327C161.675 14.0506 161.735 14.1907 161.735 14.3553V25.5746C161.735 25.7392 161.675 25.8771 161.557 25.9928C161.439 26.1062 161.297 26.1641 161.132 26.1641C160.967 26.1641 160.827 26.1062 160.712 25.9928C160.596 25.8794 160.538 25.7392 160.538 25.5746V16.7108L156.72 23.7196C156.602 23.9487 156.422 24.0621 156.179 24.0621C155.937 24.0621 155.75 23.9487 155.639 23.7196L151.847 16.7108V25.5746C151.847 25.7392 151.787 25.8771 151.669 25.9928C151.551 26.1085 151.409 26.1641 151.244 26.1641C151.079 26.1641 150.937 26.1062 150.819 25.9928C150.701 25.8794 150.641 25.7392 150.641 25.5746H150.644Z" fill="url(#paint4_linear_2588_10160)"/>
<path d="M164.628 25.409V14.5144C164.628 14.3454 164.688 14.2008 164.806 14.0829C164.923 13.965 165.068 13.9072 165.239 13.9072H171.068C171.222 13.9072 171.353 13.9605 171.462 14.0695C171.571 14.1785 171.627 14.3075 171.627 14.461C171.627 14.6145 171.571 14.7457 171.462 14.8569C171.353 14.9682 171.222 15.0238 171.068 15.0238H165.86V19.3589H169.854C170.008 19.3589 170.139 19.4145 170.248 19.5257C170.357 19.6369 170.412 19.7682 170.412 19.9217C170.412 20.0751 170.357 20.2041 170.248 20.3131C170.139 20.4221 170.008 20.4755 169.854 20.4755H165.86V24.9085H171.264C171.418 24.9085 171.551 24.9641 171.662 25.0754C171.773 25.1866 171.831 25.3178 171.831 25.4713C171.831 25.6248 171.776 25.7538 171.662 25.8628C171.551 25.9717 171.418 26.0251 171.264 26.0251H165.242C165.07 26.0251 164.926 25.9651 164.808 25.845C164.69 25.7249 164.63 25.5803 164.63 25.409H164.628Z" fill="url(#paint5_linear_2588_10160)"/>
</g>
<path d="M105.426 24.1118C105.901 24.0293 106.37 24.4437 106.474 25.0434C106.579 25.643 106.278 26.2024 105.803 26.2849H105.789C105.29 26.3784 104.784 26.4279 104.278 26.4316C103.22 26.4316 102.365 26.1785 101.707 25.6669C100.856 25.0141 100.409 23.9871 100.409 22.698V10.7783C100.409 10.2978 100.902 9.9054 101.511 9.9054C102.12 9.9054 102.613 10.296 102.613 10.7783V22.7016C102.613 23.2885 102.76 23.6974 103.049 23.9211C103.312 24.1228 103.946 24.3777 105.404 24.1155L105.422 24.1118H105.426Z" fill="white"/>
<path d="M83.1285 25.3918C82.7288 25.3918 82.3511 24.805 82.1549 24.4254C81.1299 22.4339 80.3488 20.844 79.7254 19.5677C78.451 16.9582 77.7579 15.7185 77.1858 15.2766C76.6119 14.8347 76.4946 14.2588 76.7696 13.7509C77.0575 13.2319 77.7139 13.0449 78.2328 13.3346C78.2365 13.3364 78.242 13.3401 78.2457 13.3419C79.4742 14.0406 80.1141 15.3445 81.7075 18.5994C82.3254 19.8611 83.0955 21.4327 84.104 23.3912C84.3533 23.8753 84.5294 24.8527 84.093 25.1754L83.1322 25.3937L83.1285 25.3918Z" fill="white"/>
<path d="M108.952 20.6643C108.948 17.7688 106.603 15.4233 103.708 15.4197H99.0727C98.5905 15.4197 98.2 14.9264 98.2 14.3176C98.2 13.7087 98.5905 13.2155 99.0727 13.2155H103.708C107.821 13.2155 111.156 16.5511 111.156 20.6643V25.5716C111.156 26.052 110.663 26.4445 110.054 26.4445C109.445 26.4445 108.952 26.0539 108.952 25.5716V20.6643Z" fill="white"/>
<path d="M95.7306 22.0531V22.1705C95.7306 23.4267 94.7111 24.2409 93.114 24.2409C91.517 24.2409 90.4865 23.4285 90.4865 22.1723C90.4865 20.9162 91.5188 20.0983 93.114 20.0983H93.2112C94.8743 20.0983 97.7493 20.8648 97.9474 20.929V18.8312C96.8857 18.4571 95.1841 17.8941 93.2112 17.8941H93.114C90.1583 17.8941 88.2807 19.8122 88.2807 22.1723C88.2807 24.5324 90.1583 26.4451 93.114 26.4451C96.0698 26.4451 97.9474 24.5324 97.9474 22.1723V22.066L97.9382 17.4888C97.9382 15.1287 95.659 13.2161 93.114 13.2161L92.6886 13.2106C89.3277 13.2106 86.6946 14.1201 84.7712 18.5598C84.6135 18.9229 84.465 19.2823 84.3201 19.6399L84.2981 19.6912C83.8379 20.8263 83.5684 21.6625 82.9046 23.1974C81.6633 26.0673 80.5503 27.7416 78.856 27.8406C77.9374 27.8938 77.7119 28.5063 77.8274 29.1151C77.9429 29.7239 78.3225 30.0943 78.856 30.0943C81.6193 30.0943 83.3447 27.5527 84.9986 23.931L85.0187 23.8851C85.2699 23.2965 85.512 22.684 85.7632 22.0495C86.0932 21.1986 86.4343 20.3147 86.812 19.4418C88.2807 16.0493 89.9456 15.424 92.6941 15.424H93.1195C94.2985 15.424 95.7361 16.2363 95.7361 17.4907V22.0403" fill="white"/>
<path d="M121.358 22.0545V22.1718C121.358 23.428 120.326 24.2422 118.729 24.2422C117.132 24.2422 116.101 23.4298 116.101 22.1737C116.101 20.9175 117.133 20.0997 118.729 20.0997H118.826C120.489 20.0997 123.364 20.8662 123.562 20.9304V18.8325C122.5 18.4584 120.795 17.8954 118.826 17.8954H118.729C115.773 17.8954 113.895 19.8136 113.895 22.1737C113.895 24.5338 115.773 26.4464 118.729 26.4464C121.684 26.4464 123.562 24.5338 123.562 22.1737V22.0673L123.553 17.4902C123.553 15.1301 121.274 13.2247 118.729 13.2247C118.729 13.2247 117.937 13.2174 117.772 13.2174C112.339 13.2174 108.954 16.7603 108.954 21.6584H111.16C111.16 17.9834 113.562 15.4235 117.77 15.4235C117.964 15.4235 118.577 15.4326 118.577 15.4326C120.159 15.4326 121.358 16.234 121.358 17.4902V22.06V22.0545Z" fill="white"/>
<g opacity="0.7">
<path d="M95.732 20.4132V22.1718C95.732 23.1566 95.105 23.8663 94.0671 24.1285V26.3749C96.4673 26.01 97.9488 24.2697 97.9488 22.1737V20.934C97.6921 20.8662 96.361 20.5672 95.732 20.4114V20.4132Z" fill="url(#paint6_linear_2588_10160)"/>
<path d="M121.362 20.4133V22.1719C121.362 23.1567 120.724 23.8719 119.686 24.1323V26.3768C122.086 26.0119 123.568 24.2716 123.568 22.1756V20.936C123.311 20.8681 121.989 20.5692 121.364 20.4133H121.362Z" fill="url(#paint7_linear_2588_10160)"/>
<path d="M104.268 13.2394V15.4509C106.933 15.737 108.955 17.9853 108.959 20.6644V20.934H108.986C109.067 19.5458 109.485 18.1998 110.205 17.0097C108.982 14.8385 106.755 13.4228 104.268 13.2375V13.2394Z" fill="url(#paint8_linear_2588_10160)"/>
<path d="M102.619 15.4211H100.411V21.0161H102.619V15.4211Z" fill="url(#paint9_linear_2588_10160)"/>
<path d="M79.7292 19.5679C80.3545 20.8424 81.1338 22.4378 82.1588 24.4256C82.1881 24.4825 82.2211 24.543 82.2578 24.6054C82.4705 24.1744 82.6905 23.7031 82.9105 23.1933C83.1031 22.7477 83.2626 22.3626 83.4038 22.0124C82.7272 20.6774 82.1771 19.5496 81.7095 18.5978L79.7292 19.5661V19.5679Z" fill="url(#paint10_linear_2588_10160)"/>
</g>
<defs>
<filter id="filter0_d_2588_10160" x="125.93" y="12.7555" width="46.9009" height="14.4104" filterUnits="userSpaceOnUse" color-interpolation-filters="sRGB">
<feFlood flood-opacity="0" result="BackgroundImageFix"/>
<feColorMatrix in="SourceAlpha" type="matrix" values="0 0 0 0 0 0 0 0 0 0 0 0 0 0 0 0 0 0 127 0" result="hardAlpha"/>
<feOffset/>
<feGaussianBlur stdDeviation="0.5"/>
<feComposite in2="hardAlpha" operator="out"/>
<feColorMatrix type="matrix" values="0 0 0 0 0 0 0 0 0 0 0 0 0 0 0 0 0 0 0.5 0"/>
<feBlend mode="normal" in2="BackgroundImageFix" result="effect1_dropShadow_2588_10160"/>
<feBlend mode="normal" in="SourceGraphic" in2="effect1_dropShadow_2588_10160" result="shape"/>
</filter>
<linearGradient id="paint0_linear_2588_10160" x1="-12.2077" y1="19.9978" x2="343.58" y2="19.9978" gradientUnits="userSpaceOnUse">
<stop stop-color="#C8992E"/>
<stop offset="0.43" stop-color="#F9DF7B"/>
<stop offset="0.59" stop-color="#FFF3A6"/>
<stop offset="0.73" stop-color="#F9DF7B"/>
<stop offset="0.84" stop-color="#D2A73E"/>
<stop offset="0.93" stop-color="#B57E10"/>
<stop offset="0.94" stop-color="#B88316"/>
<stop offset="1" stop-color="#CDA035"/>
</linearGradient>
<linearGradient id="paint1_linear_2588_10160" x1="122.825" y1="20.0345" x2="173.481" y2="20.0345" gradientUnits="userSpaceOnUse">
<stop stop-color="#C8992E"/>
<stop offset="0.43" stop-color="#F9DF7B"/>
<stop offset="0.59" stop-color="#FFF3A6"/>
<stop offset="0.73" stop-color="#F9DF7B"/>
<stop offset="0.84" stop-color="#D2A73E"/>
<stop offset="0.93" stop-color="#B57E10"/>
<stop offset="0.94" stop-color="#B88316"/>
<stop offset="1" stop-color="#CDA035"/>
</linearGradient>
<linearGradient id="paint2_linear_2588_10160" x1="122.83" y1="20.0358" x2="173.487" y2="20.0358" gradientUnits="userSpaceOnUse">
<stop stop-color="#C8992E"/>
<stop offset="0.43" stop-color="#F9DF7B"/>
<stop offset="0.59" stop-color="#FFF3A6"/>
<stop offset="0.73" stop-color="#F9DF7B"/>
<stop offset="0.84" stop-color="#D2A73E"/>
<stop offset="0.93" stop-color="#B57E10"/>
<stop offset="0.94" stop-color="#B88316"/>
<stop offset="1" stop-color="#CDA035"/>
</linearGradient>
<linearGradient id="paint3_linear_2588_10160" x1="122.825" y1="19.9591" x2="173.481" y2="19.9591" gradientUnits="userSpaceOnUse">
<stop stop-color="#C8992E"/>
<stop offset="0.73" stop-color="#F9DF7B"/>
<stop offset="0.84" stop-color="#D2A73E"/>
<stop offset="0.93" stop-color="#B57E10"/>
<stop offset="0.94" stop-color="#B88316"/>
<stop offset="1" stop-color="#CDA035"/>
</linearGradient>
<linearGradient id="paint4_linear_2588_10160" x1="122.826" y1="19.9583" x2="173.482" y2="19.9583" gradientUnits="userSpaceOnUse">
<stop stop-color="#C8992E"/>
<stop offset="0.73" stop-color="#F9DF7B"/>
<stop offset="0.84" stop-color="#D2A73E"/>
<stop offset="0.93" stop-color="#B57E10"/>
<stop offset="0.94" stop-color="#B88316"/>
<stop offset="1" stop-color="#CDA035"/>
</linearGradient>
<linearGradient id="paint5_linear_2588_10160" x1="122.825" y1="19.9639" x2="173.481" y2="19.9639" gradientUnits="userSpaceOnUse">
<stop stop-color="#C8992E"/>
<stop offset="0.43" stop-color="#F9DF7B"/>
<stop offset="0.59" stop-color="#FFF3A6"/>
<stop offset="0.73" stop-color="#F9DF7B"/>
<stop offset="0.84" stop-color="#D2A73E"/>
<stop offset="0.93" stop-color="#B57E10"/>
<stop offset="0.94" stop-color="#B88316"/>
<stop offset="1" stop-color="#CDA035"/>
</linearGradient>
<linearGradient id="paint6_linear_2588_10160" x1="95.4313" y1="26.6169" x2="96.5262" y2="20.4023" gradientUnits="userSpaceOnUse">
<stop offset="0.02" stop-color="white" stop-opacity="0"/>
<stop offset="0.65" stop-color="white" stop-opacity="0"/>
<stop offset="0.71" stop-color="#B1B1B2" stop-opacity="0.17"/>
<stop offset="0.89" stop-color="#808080" stop-opacity="0.62"/>
<stop offset="0.99" stop-color="#666769" stop-opacity="0.8"/>
</linearGradient>
<linearGradient id="paint7_linear_2588_10160" x1="121.05" y1="26.6189" x2="122.149" y2="20.3822" gradientUnits="userSpaceOnUse">
<stop offset="0.02" stop-color="white" stop-opacity="0"/>
<stop offset="0.65" stop-color="white" stop-opacity="0"/>
<stop offset="0.71" stop-color="#B1B1B2" stop-opacity="0.17"/>
<stop offset="0.91" stop-color="#808080" stop-opacity="0.62"/>
<stop offset="1" stop-color="#666769" stop-opacity="0.8"/>
</linearGradient>
<linearGradient id="paint8_linear_2588_10160" x1="103.394" y1="15.9296" x2="110.059" y2="18.0948" gradientUnits="userSpaceOnUse">
<stop offset="0.02" stop-color="white" stop-opacity="0"/>
<stop offset="0.65" stop-color="white" stop-opacity="0"/>
<stop offset="0.71" stop-color="#B1B1B2" stop-opacity="0.17"/>
<stop offset="0.91" stop-color="#808080" stop-opacity="0.62"/>
<stop offset="1" stop-color="#666769" stop-opacity="0.8"/>
</linearGradient>
<linearGradient id="paint9_linear_2588_10160" x1="101.515" y1="21.0179" x2="101.515" y2="15.4211" gradientUnits="userSpaceOnUse">
<stop offset="0.02" stop-color="white" stop-opacity="0"/>
<stop offset="0.65" stop-color="white" stop-opacity="0"/>
<stop offset="0.71" stop-color="#B1B1B2" stop-opacity="0.17"/>
<stop offset="0.91" stop-color="#808080" stop-opacity="0.62"/>
<stop offset="1" stop-color="#666769" stop-opacity="0.8"/>
</linearGradient>
<linearGradient id="paint10_linear_2588_10160" x1="79.7604" y1="17.8863" x2="83.1036" y2="23.4754" gradientUnits="userSpaceOnUse">
<stop offset="0.02" stop-color="white" stop-opacity="0"/>
<stop offset="0.5" stop-color="white" stop-opacity="0"/>
<stop offset="0.54" stop-color="#C2C2C3" stop-opacity="0.07"/>
<stop offset="0.85" stop-color="#808080" stop-opacity="0.52"/>
<stop offset="1" stop-color="#666769" stop-opacity="0.7"/>
</linearGradient>
</defs>
</svg>
